<?xml version="1.0" standalone="no"?>
<!DOCTYPE svg PUBLIC "-//W3C//DTD SVG 20010904//EN"
 "http://www.w3.org/TR/2001/REC-SVG-20010904/DTD/svg10.dtd">
<svg version="1.0" xmlns="http://www.w3.org/2000/svg"
 width="1024.000000pt" height="1024.000000pt" viewBox="0 0 1024.000000 1024.000000"
 preserveAspectRatio="xMidYMid meet">
<metadata>
Created by potrace 1.16, written by Peter Selinger 2001-2019
</metadata>
<g transform="translate(0.000000,1024.000000) scale(0.100000,-0.100000)"
fill="#000000" stroke="none">
<path d="M4580 10229 c-47 -4 -121 -13 -165 -19 -44 -6 -100 -13 -125 -16 -25
-2 -58 -9 -73 -16 -15 -6 -30 -8 -33 -5 -3 3 -20 1 -37 -4 -18 -6 -48 -12 -67
-14 -19 -3 -48 -10 -63 -16 -15 -7 -30 -9 -34 -6 -3 4 -21 0 -41 -9 -19 -8
-37 -12 -40 -10 -2 3 -20 -1 -40 -10 -19 -8 -37 -12 -40 -10 -2 3 -20 -1 -40
-10 -19 -8 -37 -12 -40 -10 -2 3 -18 -2 -34 -10 -15 -8 -34 -14 -41 -12 -6 1
-22 -3 -34 -10 -12 -7 -26 -11 -30 -10 -4 1 -18 -3 -31 -10 -12 -7 -27 -10
-32 -7 -5 3 -11 1 -15 -5 -5 -8 -74 -33 -100 -35 -5 -1 -21 -7 -33 -14 -13 -7
-26 -10 -30 -7 -3 3 -14 -1 -24 -11 -15 -14 -22 -14 -42 -4 -12 7 -34 11 -47
8 -19 -3 -17 -5 9 -6 44 -1 40 -15 -10 -34 -30 -12 -45 -14 -54 -6 -7 6 -23 9
-36 6 -20 -4 -20 -4 5 -6 15 0 27 -5 27 -9 0 -14 -84 -44 -88 -32 -2 5 -18 9
-35 9 -31 -2 -31 -2 -4 -6 28 -4 35 -17 17 -28 -6 -4 -17 -1 -25 5 -8 6 -24
10 -37 7 -20 -4 -20 -4 5 -6 15 0 27 -5 27 -10 0 -15 -43 -26 -48 -12 -2 6
-16 11 -30 10 -26 -1 -26 -1 -4 -7 13 -4 23 -11 23 -16 0 -13 -105 -59 -109
-47 -2 6 -16 10 -30 10 -24 -2 -24 -2 -4 -6 24 -5 29 -18 10 -29 -6 -4 -14 -2
-16 4 -2 7 -16 11 -30 11 -24 -2 -24 -2 -4 -6 23 -5 29 -18 12 -28 -6 -4 -17
-1 -25 5 -8 6 -22 10 -32 7 -14 -4 -12 -5 5 -6 38 -2 21 -20 -53 -59 -46 -25
-70 -33 -73 -24 -2 6 -13 12 -25 11 -21 0 -20 -1 3 -11 21 -8 22 -12 10 -19
-8 -6 -67 -41 -131 -78 -135 -80 -323 -204 -441 -293 -78 -58 -277 -215 -288
-228 -3 -3 -48 -43 -100 -90 -120 -108 -252 -240 -360 -360 -47 -52 -87 -97
-90 -100 -3 -3 -22 -26 -43 -52 -21 -26 -43 -53 -50 -60 -7 -7 -24 -29 -38
-48 -15 -19 -36 -46 -48 -59 -11 -13 -21 -27 -21 -30 0 -3 -10 -18 -22 -32
-13 -14 -27 -32 -33 -40 -66 -103 -122 -179 -132 -179 -6 0 -14 6 -16 13 -4 7
-6 6 -6 -5 -1 -9 4 -18 10 -20 13 -4 -78 -148 -93 -148 -5 0 -7 4 -3 9 3 5 1
12 -5 16 -5 3 -10 -3 -10 -14 0 -10 5 -21 11 -23 8 -3 2 -20 -16 -46 -30 -46
-41 -51 -48 -24 -4 13 -5 12 -6 -5 0 -12 4 -23 10 -25 7 -2 -1 -25 -20 -56
-17 -29 -31 -57 -31 -62 0 -17 -28 -11 -33 8 -4 13 -5 12 -6 -5 0 -12 4 -23
11 -25 6 -2 8 -10 4 -16 -11 -19 -24 -14 -29 11 -4 19 -4 19 -6 -5 0 -14 4
-28 11 -30 6 -2 8 -10 4 -16 -11 -19 -24 -14 -29 11 -4 19 -4 19 -6 -5 0 -14
4 -28 11 -30 6 -2 8 -10 4 -16 -11 -19 -24 -14 -29 11 -4 19 -4 19 -6 -5 0
-14 4 -28 11 -30 6 -2 8 -10 4 -16 -11 -19 -24 -14 -29 11 -4 19 -4 19 -6 -5
0 -14 4 -28 11 -30 6 -2 8 -10 4 -16 -11 -19 -24 -14 -29 11 -4 19 -4 19 -6
-5 0 -14 4 -28 11 -30 6 -2 8 -10 4 -16 -11 -19 -24 -14 -29 11 -4 19 -4 19
-6 -5 0 -14 4 -28 11 -30 6 -2 8 -10 4 -16 -11 -19 -24 -14 -29 11 -4 19 -4
19 -6 -5 0 -14 4 -28 11 -30 8 -3 6 -17 -7 -46 -22 -49 -32 -53 -38 -14 -4 26
-4 26 -6 -5 0 -17 4 -33 11 -35 6 -2 8 -10 4 -16 -12 -20 -24 -13 -29 16 -4
26 -4 26 -6 -5 0 -17 4 -33 11 -35 6 -2 8 -10 4 -16 -11 -19 -24 -14 -29 11
-4 19 -4 19 -6 -5 0 -14 4 -28 10 -30 13 -4 3 -48 -11 -48 -5 0 -11 15 -13 33
l-4 32 -1 -37 c-1 -20 3 -38 10 -40 6 -2 8 -10 4 -16 -12 -20 -24 -13 -29 16
-4 26 -4 26 -6 -5 0 -17 4 -33 10 -35 13 -4 3 -48 -11 -48 -5 0 -11 15 -13 33
-4 31 -4 31 -5 -5 -1 -21 3 -38 8 -38 15 0 12 -26 -5 -40 -8 -7 -12 -16 -9
-21 3 -5 -2 -18 -10 -30 -8 -12 -12 -27 -10 -34 3 -7 1 -16 -5 -20 -6 -3 -11
-16 -11 -28 0 -12 -7 -31 -15 -41 -8 -10 -12 -23 -9 -27 3 -5 -2 -18 -10 -30
-8 -12 -12 -28 -9 -37 4 -10 2 -13 -5 -8 -8 4 -10 2 -6 -7 3 -8 1 -18 -5 -21
-6 -4 -8 -13 -5 -20 3 -8 -1 -27 -9 -43 -8 -15 -12 -34 -9 -42 2 -8 0 -11 -5
-8 -5 3 -9 -2 -10 -11 -2 -31 -9 -67 -16 -82 -4 -8 -9 -28 -11 -45 -2 -16 -8
-42 -14 -56 -6 -15 -8 -30 -5 -33 3 -3 0 -19 -7 -36 -7 -16 -12 -41 -12 -55 0
-14 -3 -23 -7 -21 -3 2 -7 -6 -7 -17 -3 -57 -7 -84 -15 -107 -5 -14 -11 -47
-14 -75 -3 -27 -10 -81 -15 -120 -24 -181 -29 -310 -29 -700 0 -390 5 -519 29
-700 5 -38 12 -92 15 -120 3 -27 9 -61 14 -75 8 -23 12 -50 15 -107 0 -11 4
-19 7 -17 4 2 6 -7 6 -21 0 -14 6 -39 13 -55 7 -17 10 -33 7 -36 -3 -3 -1 -18
5 -33 6 -14 12 -39 14 -56 2 -16 7 -37 11 -45 7 -15 14 -51 16 -82 1 -9 5 -14
10 -11 5 3 7 0 5 -8 -3 -8 1 -27 9 -42 8 -16 12 -35 9 -43 -3 -7 -1 -16 5 -20
6 -3 8 -13 5 -21 -4 -9 -2 -11 6 -7 7 5 9 2 5 -8 -3 -9 1 -25 9 -37 8 -12 13
-25 10 -30 -3 -4 1 -17 9 -27 8 -10 15 -29 15 -41 0 -12 5 -25 11 -28 6 -4 8
-13 5 -20 -2 -7 2 -22 10 -34 8 -12 13 -25 10 -30 -3 -5 1 -14 9 -21 17 -14
20 -40 5 -40 -5 0 -9 -17 -8 -37 1 -37 1 -37 5 -5 2 17 8 32 13 32 14 0 24
-44 11 -48 -6 -2 -10 -18 -10 -35 2 -31 2 -31 6 -4 5 28 17 35 29 15 4 -6 2
-14 -4 -16 -7 -2 -11 -20 -10 -40 l1 -37 4 32 c2 18 8 33 13 33 14 0 24 -44
11 -48 -6 -2 -10 -16 -10 -30 2 -24 2 -24 6 -4 5 24 18 29 29 10 4 -6 2 -14
-4 -16 -7 -2 -11 -18 -11 -35 2 -31 2 -31 6 -4 5 28 17 35 29 15 4 -6 2 -14
-4 -16 -7 -2 -11 -18 -11 -35 2 -31 2 -31 6 -4 6 38 16 34 38 -15 13 -29 15
-43 7 -46 -7 -2 -11 -16 -11 -30 2 -24 2 -24 6 -4 5 24 18 29 29 10 4 -6 2
-14 -4 -16 -7 -2 -11 -16 -11 -30 2 -24 2 -24 6 -4 5 24 18 29 29 10 4 -6 2
-14 -4 -16 -7 -2 -11 -16 -11 -30 2 -24 2 -24 6 -4 5 24 18 29 29 10 4 -6 2
-14 -4 -16 -7 -2 -11 -16 -11 -30 2 -24 2 -24 6 -4 5 24 18 29 29 10 4 -6 2
-14 -4 -16 -7 -2 -11 -16 -11 -30 2 -24 2 -24 6 -4 5 24 18 29 29 10 4 -6 2
-14 -4 -16 -7 -2 -11 -16 -11 -30 2 -24 2 -24 6 -4 5 24 18 29 29 10 4 -6 2
-14 -4 -16 -7 -2 -11 -16 -11 -30 2 -24 2 -24 6 -4 5 24 18 29 29 10 4 -6 2
-14 -4 -16 -7 -2 -11 -13 -11 -25 1 -17 2 -18 6 -4 5 18 33 24 33 7 0 -5 14
-33 31 -62 19 -31 27 -54 20 -56 -6 -2 -10 -13 -10 -25 1 -17 2 -18 6 -4 7 26
18 21 48 -25 18 -26 24 -43 16 -46 -6 -2 -11 -13 -11 -23 0 -11 5 -17 10 -14
6 4 8 11 5 16 -4 5 -2 9 3 9 15 0 106 -144 93 -148 -6 -2 -11 -11 -10 -20 0
-11 2 -12 6 -4 2 6 10 12 16 12 10 0 66 -76 132 -179 6 -8 20 -26 33 -40 12
-14 22 -29 22 -32 0 -3 10 -17 21 -30 12 -13 33 -40 48 -59 14 -19 31 -41 38
-48 7 -7 29 -34 50 -60 21 -26 40 -49 43 -52 3 -3 43 -48 90 -100 108 -120
240 -252 360 -360 52 -47 97 -87 100 -90 16 -16 170 -138 261 -207 136 -103
290 -207 454 -305 72 -42 137 -82 145 -87 12 -7 11 -11 -10 -19 -23 -10 -24
-11 -3 -11 12 -1 23 5 25 11 3 9 27 1 73 -24 74 -39 91 -57 53 -59 -17 -1 -19
-2 -5 -6 10 -3 24 1 32 7 8 6 19 9 25 5 17 -10 11 -23 -12 -28 -20 -4 -20 -4
4 -6 14 0 28 4 30 10 4 12 149 -54 149 -68 0 -4 -10 -11 -23 -15 -22 -6 -22
-6 4 -7 14 -1 28 4 30 10 5 14 48 3 48 -12 0 -5 -12 -10 -27 -10 -25 -2 -25
-2 -5 -6 13 -3 29 1 37 7 8 6 19 9 25 5 18 -11 11 -24 -17 -28 -27 -4 -27 -4
4 -6 17 0 33 4 35 9 4 12 88 -18 88 -32 0 -4 -12 -9 -27 -9 -25 -2 -25 -2 -5
-6 13 -3 29 0 36 6 9 8 24 6 54 -6 48 -19 54 -32 15 -34 -25 -2 -25 -2 -5 -6
13 -3 29 1 37 7 15 13 55 5 55 -11 0 -6 4 -7 10 -4 5 3 20 0 32 -7 13 -7 27
-11 31 -10 4 1 18 -3 30 -10 12 -7 26 -11 30 -10 4 1 18 -3 30 -10 12 -7 26
-11 30 -10 4 1 18 -3 30 -10 12 -6 29 -13 37 -14 33 -6 87 -22 106 -32 12 -6
24 -9 27 -6 2 3 21 -1 40 -10 19 -8 37 -12 40 -10 2 2 20 -2 39 -10 20 -9 38
-13 40 -10 3 2 21 -2 40 -10 20 -9 38 -13 41 -9 4 3 19 1 34 -6 15 -6 44 -13
63 -15 19 -3 42 -7 50 -11 9 -3 31 -7 50 -10 19 -2 67 -9 105 -15 277 -46 401
-54 830 -54 429 0 553 8 830 54 39 6 86 13 105 15 19 3 41 7 50 10 8 4 31 8
50 11 19 2 48 9 63 15 15 7 30 9 34 6 3 -4 21 0 41 9 19 8 37 12 40 10 2 -3
20 1 40 10 19 8 37 12 40 10 2 -3 20 1 40 10 19 8 37 12 40 10 2 -3 18 2 34
10 15 8 34 14 41 12 6 -1 22 3 34 10 12 7 26 11 30 10 4 -1 18 3 30 10 12 7
26 11 30 10 4 -1 18 3 30 10 12 7 26 11 30 10 4 -1 18 3 30 10 12 7 26 11 30
10 4 -1 19 4 31 11 13 7 26 10 30 7 3 -3 14 1 24 11 15 14 22 14 42 4 12 -7
34 -11 47 -8 19 3 17 5 -8 6 -45 1 -41 15 9 34 29 12 45 14 54 6 7 -6 25 -9
41 -6 27 4 27 4 -4 6 -45 2 -41 15 9 34 30 12 45 14 54 6 7 -6 23 -9 36 -6 20
4 20 4 -4 6 -28 1 -37 14 -18 26 6 4 17 1 25 -5 8 -6 24 -10 37 -7 20 4 20 4
-4 6 -16 0 -28 5 -28 10 0 15 43 26 48 12 2 -6 16 -11 30 -10 26 1 26 1 4 7
-13 4 -23 11 -23 16 0 13 105 59 109 47 2 -6 16 -10 30 -10 24 2 24 2 5 6 -24
5 -30 18 -13 28 6 4 17 1 25 -5 8 -6 22 -10 32 -7 14 4 13 5 -4 6 -24 1 -30
15 -13 26 6 4 17 1 25 -5 8 -6 22 -10 32 -7 14 4 13 5 -4 6 -25 1 -30 15 -11
27 6 4 14 2 16 -4 2 -7 16 -11 30 -11 25 2 25 2 4 6 -33 6 -24 20 32 51 35 19
50 23 53 15 3 -7 14 -13 26 -12 21 0 20 1 -3 11 -21 8 -22 12 -10 19 8 6 67
41 131 78 135 80 323 204 441 293 78 58 277 215 288 228 3 3 48 43 100 90 120
108 252 240 360 360 47 52 87 97 90 100 3 3 25 30 50 60 25 30 47 57 50 60 3
3 17 21 32 42 15 20 33 42 40 50 7 7 24 30 38 50 14 21 31 38 38 38 7 0 3 -11
-12 -26 -15 -17 -22 -33 -18 -43 5 -13 8 -11 10 7 2 12 8 20 13 17 5 -4 9 1 9
9 0 9 5 16 10 16 14 0 13 27 -1 32 -7 2 2 22 22 48 19 25 48 66 64 92 30 48
49 59 58 36 4 -8 6 -7 6 4 1 9 -4 18 -10 20 -13 4 78 148 93 148 5 0 7 -4 3
-9 -3 -5 -1 -12 5 -16 5 -3 10 3 10 14 0 10 -5 21 -11 23 -8 3 -2 20 16 46 30
46 41 51 48 25 4 -14 5 -13 6 4 0 12 -4 23 -10 25 -7 2 1 25 20 56 17 29 31
57 31 62 0 17 28 11 33 -7 4 -14 5 -13 6 4 0 12 -4 23 -11 25 -6 2 -8 10 -4
16 11 19 24 14 29 -10 4 -20 4 -20 6 4 0 14 -4 28 -11 30 -6 2 -8 10 -4 16 11
19 24 14 29 -10 4 -20 4 -20 6 4 0 14 -4 28 -11 30 -6 2 -8 10 -4 16 11 19 24
14 29 -10 4 -20 4 -20 6 4 0 14 -4 28 -11 30 -6 2 -8 10 -4 16 11 19 24 14 29
-11 4 -19 4 -19 6 5 0 14 -4 28 -11 30 -6 2 -8 10 -4 16 11 19 24 14 29 -10 4
-20 4 -20 6 4 0 14 -4 28 -11 30 -6 2 -8 10 -4 16 11 19 24 14 29 -10 4 -20 4
-20 6 4 0 14 -4 28 -11 30 -6 2 -8 10 -4 16 11 19 24 14 29 -10 4 -20 4 -20 6
4 0 14 -4 28 -11 30 -8 3 -6 17 7 46 22 49 32 53 38 15 4 -27 4 -27 6 4 0 17
-4 33 -11 35 -6 2 -8 10 -4 16 12 20 24 13 29 -15 4 -27 4 -27 6 4 0 17 -4 33
-11 35 -6 2 -8 10 -4 16 11 19 24 14 29 -10 4 -20 4 -20 6 4 0 14 -4 28 -10
30 -13 4 -3 48 11 48 5 0 11 -15 13 -33 l4 -32 1 37 c1 20 -3 38 -10 40 -6 2
-8 10 -4 16 12 20 24 13 29 -15 4 -27 4 -27 6 4 0 17 -4 33 -10 35 -13 4 -3
48 11 48 5 0 11 -15 13 -32 4 -32 4 -32 5 5 1 20 -2 37 -8 37 -15 0 -12 26 5
40 8 7 12 16 9 21 -2 5 2 19 11 32 8 13 12 26 9 29 -3 4 2 17 10 30 9 14 13
27 10 30 -3 4 2 17 10 30 9 14 13 27 10 31 -3 3 1 16 9 28 9 11 13 28 10 37
-4 10 -2 13 5 8 8 -4 10 -2 6 7 -3 8 -1 18 5 21 6 4 8 13 5 20 -3 8 1 27 9 43
8 15 12 34 9 42 -2 8 -1 11 4 8 5 -3 10 6 11 19 5 53 6 59 15 71 5 6 10 25 10
42 1 17 4 29 7 26 7 -3 9 7 12 63 1 15 6 35 11 45 5 10 10 31 10 47 1 16 4 28
7 26 3 -2 7 6 7 17 1 22 4 40 24 167 46 287 54 410 54 835 0 425 -8 548 -54
835 -20 127 -23 145 -24 167 0 11 -4 19 -7 17 -3 -2 -6 10 -7 26 0 16 -5 37
-10 47 -5 10 -10 30 -11 46 -3 55 -5 65 -12 62 -3 -3 -6 9 -7 26 0 17 -5 36
-10 42 -8 11 -11 29 -15 79 -1 9 -5 14 -10 11 -5 -3 -7 0 -5 8 3 8 -1 27 -9
42 -8 16 -12 35 -9 43 3 7 1 16 -5 20 -6 3 -8 13 -5 21 4 9 2 11 -6 7 -7 -5
-9 -2 -5 8 3 9 -1 26 -10 37 -8 12 -12 25 -9 28 3 4 -1 17 -10 31 -8 13 -13
26 -10 30 3 3 -1 16 -10 30 -8 13 -13 26 -10 30 3 3 -1 16 -9 29 -9 13 -13 27
-11 32 3 5 -1 14 -9 21 -17 14 -20 40 -5 40 6 0 9 17 8 38 -1 36 -1 36 -5 5
-2 -18 -8 -33 -13 -33 -14 0 -24 44 -11 48 6 2 10 18 10 35 -2 31 -2 31 -6 5
-5 -29 -17 -36 -29 -16 -4 6 -2 14 4 16 7 2 11 20 10 40 l-1 37 -4 -32 c-2
-18 -8 -33 -13 -33 -14 0 -24 44 -11 48 6 2 10 16 10 30 -2 24 -2 24 -6 5 -5
-25 -18 -30 -29 -11 -4 6 -2 14 4 16 7 2 11 18 11 35 -2 31 -2 31 -6 5 -5 -29
-17 -36 -29 -16 -4 6 -2 14 4 16 7 2 11 18 11 35 -2 31 -2 31 -6 5 -6 -39 -16
-35 -38 14 -13 29 -15 43 -7 46 7 2 11 16 11 30 -2 24 -2 24 -6 5 -5 -25 -18
-30 -29 -11 -4 6 -2 14 4 16 7 2 11 16 11 30 -2 24 -2 24 -6 5 -5 -25 -18 -30
-29 -11 -4 6 -2 14 4 16 7 2 11 16 11 30 -2 24 -2 24 -6 5 -5 -25 -18 -30 -29
-11 -4 6 -2 14 4 16 7 2 11 16 11 30 -2 24 -2 24 -6 5 -5 -25 -18 -30 -29 -11
-4 6 -2 14 4 16 7 2 11 16 11 30 -2 24 -2 24 -6 5 -5 -25 -18 -30 -29 -11 -4
6 -2 14 4 16 7 2 11 16 11 30 -2 24 -2 24 -6 5 -5 -25 -18 -30 -29 -11 -4 6
-2 14 4 16 7 2 11 16 11 30 -2 24 -2 24 -6 5 -5 -25 -18 -30 -29 -11 -4 6 -2
14 4 16 7 2 11 13 11 25 -1 17 -2 18 -6 5 -5 -19 -33 -25 -33 -8 0 5 -14 33
-31 62 -19 31 -27 54 -20 56 6 2 10 13 10 25 -1 17 -2 18 -6 5 -7 -27 -18 -22
-48 24 -18 26 -24 43 -16 46 6 2 11 13 11 23 0 11 -5 17 -10 14 -6 -4 -8 -11
-5 -16 4 -5 2 -9 -3 -9 -15 0 -106 144 -93 148 6 2 11 11 10 20 0 11 -2 12 -6
5 -2 -7 -10 -13 -16 -13 -10 0 -66 76 -132 179 -5 8 -20 26 -32 40 -13 14 -23
29 -23 32 0 3 -10 17 -21 30 -12 13 -33 40 -48 59 -14 19 -28 37 -31 40 -3 3
-25 30 -50 60 -25 30 -47 57 -50 60 -3 3 -43 48 -90 100 -108 120 -240 252
-360 360 -52 47 -97 87 -100 90 -10 11 -207 168 -285 226 -112 85 -307 214
-444 295 -64 37 -123 72 -131 78 -12 7 -11 11 10 19 23 10 24 11 3 11 -12 1
-23 -5 -25 -11 -3 -9 -27 -1 -73 24 -74 39 -91 57 -53 59 17 1 19 2 5 6 -10 3
-24 -1 -32 -7 -8 -6 -19 -9 -25 -5 -17 11 -11 25 13 26 17 1 18 2 4 6 -10 3
-24 -1 -32 -7 -8 -6 -19 -9 -25 -5 -17 10 -11 23 13 28 19 4 19 4 -5 6 -14 0
-28 -4 -30 -10 -3 -9 -118 36 -118 47 0 3 10 9 23 14 22 9 22 9 0 9 -12 1 -23
-5 -25 -11 -3 -9 -15 -8 -46 6 -49 22 -54 35 -14 37 24 2 24 2 4 6 -13 3 -29
0 -36 -6 -9 -8 -24 -6 -54 6 -50 19 -54 32 -9 34 31 2 31 2 4 6 -16 3 -34 0
-41 -6 -9 -8 -25 -6 -54 6 -50 19 -54 33 -9 34 25 1 27 3 8 6 -13 3 -35 -1
-47 -8 -20 -10 -27 -10 -42 4 -10 10 -21 14 -24 11 -4 -3 -17 0 -30 7 -12 7
-27 13 -33 14 -26 2 -95 27 -100 35 -4 6 -10 8 -15 5 -5 -3 -20 0 -32 7 -13 7
-27 11 -31 10 -4 -1 -18 3 -30 10 -12 7 -28 11 -34 10 -7 -2 -26 4 -41 12 -16
8 -32 13 -34 10 -3 -2 -21 2 -40 10 -20 9 -38 13 -40 10 -3 -2 -21 2 -40 10
-20 9 -38 13 -40 10 -3 -2 -21 2 -40 10 -20 9 -38 13 -41 9 -4 -3 -19 -1 -34
6 -15 6 -44 13 -63 16 -19 2 -49 8 -67 14 -17 5 -34 7 -37 4 -2 -3 -20 0 -38
6 -18 6 -51 13 -73 15 -22 3 -76 10 -120 16 -44 6 -125 15 -180 20 -120 11
-935 10 -1055 -1z m896 -2820 c148 -72 355 -173 459 -224 105 -51 280 -136
389 -190 110 -53 294 -143 410 -200 116 -56 301 -146 410 -200 110 -53 294
-143 410 -200 116 -56 309 -150 429 -209 l217 -106 -2 -247 -3 -248 -70 -46
c-67 -44 -148 -95 -300 -189 -38 -24 -104 -64 -145 -90 -41 -26 -106 -66 -145
-90 -38 -24 -104 -64 -145 -90 -41 -26 -106 -66 -145 -90 -119 -73 -227 -141
-297 -187 -37 -23 -70 -43 -73 -43 -3 0 -36 -20 -73 -43 -70 -46 -178 -114
-297 -187 -38 -24 -104 -64 -145 -90 -41 -26 -106 -66 -145 -90 -38 -24 -104
-64 -145 -90 -41 -26 -142 -89 -225 -140 -82 -51 -180 -112 -217 -136 -37 -24
-70 -44 -74 -44 -3 0 -24 -13 -47 -29 -23 -15 -71 -46 -107 -68 -36 -22 -103
-64 -150 -93 -47 -29 -107 -66 -134 -82 l-48 -29 -422 210 c-231 115 -753 374
-1158 575 -406 201 -738 369 -738 373 0 14 132 273 142 279 5 3 109 -44 231
-104 1204 -597 1569 -778 1731 -858 105 -52 194 -94 200 -94 5 0 39 19 75 42
81 50 193 120 286 178 39 24 104 64 145 90 41 26 143 89 225 140 83 51 184
114 225 140 41 26 107 66 145 90 39 24 104 64 145 90 41 26 107 66 145 90 39
24 105 65 148 92 42 26 112 70 155 96 42 27 109 68 147 92 39 24 104 64 145
90 41 26 107 66 145 90 39 24 104 64 145 90 41 26 104 65 140 87 143 88 243
150 317 198 l78 50 3 55 2 55 -127 62 c-71 34 -252 122 -403 196 -151 74 -356
174 -455 222 -99 48 -283 138 -410 200 -126 62 -311 152 -410 200 -99 48 -288
140 -420 205 -132 64 -280 137 -329 160 -50 24 -98 43 -107 43 -10 -1 -52 -24
-93 -52 -41 -28 -78 -51 -81 -51 -3 0 -42 -24 -88 -53 -76 -50 -116 -75 -324
-205 -43 -27 -115 -72 -160 -100 -46 -29 -118 -74 -160 -100 -43 -27 -114 -71
-158 -99 -44 -27 -116 -72 -160 -100 -44 -27 -117 -73 -162 -101 -46 -29 -120
-75 -165 -104 -106 -65 -222 -138 -320 -200 -43 -26 -114 -70 -158 -98 -44
-27 -116 -72 -160 -100 -179 -112 -239 -150 -330 -207 -52 -33 -173 -108 -267
-168 l-173 -107 0 -412 0 -411 1400 -700 1400 -700 43 24 c23 13 76 44 117 70
41 27 105 67 143 89 37 23 97 61 135 84 37 22 101 62 142 88 79 49 114 71 355
220 83 51 177 110 210 130 33 20 128 79 210 130 83 51 177 110 210 130 33 20
128 79 210 130 83 51 177 110 210 130 33 20 128 79 210 130 83 51 179 111 215
133 36 22 83 52 105 66 22 14 64 40 94 58 52 31 53 33 30 42 -13 5 -64 20
-114 32 -49 12 -93 24 -97 28 -7 6 64 296 76 308 7 8 776 -183 789 -196 8 -8
-177 -778 -192 -793 -6 -7 -296 64 -308 75 -5 6 39 204 54 244 9 23 -16 14
-87 -32 -39 -25 -101 -65 -140 -90 -38 -25 -72 -45 -75 -45 -3 0 -36 -20 -73
-43 -37 -24 -98 -63 -137 -87 -38 -24 -100 -63 -137 -87 -37 -23 -70 -43 -73
-43 -3 0 -36 -20 -73 -43 -37 -24 -98 -63 -137 -87 -38 -24 -104 -64 -145 -90
-41 -26 -104 -65 -140 -87 -112 -69 -202 -125 -280 -173 -41 -26 -105 -66
-142 -88 -38 -23 -98 -61 -135 -84 -38 -22 -102 -62 -143 -88 -41 -26 -104
-65 -140 -87 -112 -69 -202 -125 -280 -173 -83 -52 -181 -112 -280 -173 -36
-22 -95 -60 -132 -84 -37 -23 -71 -43 -75 -43 -17 0 -3140 1563 -3151 1578 -9
12 -12 147 -12 593 0 318 3 584 6 592 5 15 56 49 239 164 44 27 116 72 160
100 44 27 116 72 160 100 44 27 118 74 165 103 84 53 174 109 320 200 86 54
238 149 355 223 44 28 116 73 160 100 44 28 116 73 160 100 44 28 116 73 160
100 44 28 116 73 160 100 44 28 114 71 155 97 41 26 111 69 155 97 44 27 116
72 160 100 44 27 118 74 165 103 47 29 120 75 163 102 187 116 238 148 327
206 52 34 102 61 111 62 10 0 138 -59 285 -131z"/>
</g>
</svg>
